<?xml version="1.0" encoding="UTF-8" standalone="no"?>
<!-- Created with Inkscape (http://www.inkscape.org/) -->

<svg
   xmlns:dc="http://purl.org/dc/elements/1.1/"
   xmlns:cc="http://creativecommons.org/ns#"
   xmlns:rdf="http://www.w3.org/1999/02/22-rdf-syntax-ns#"
   xmlns:svg="http://www.w3.org/2000/svg"
   xmlns="http://www.w3.org/2000/svg"
   xmlns:xlink="http://www.w3.org/1999/xlink"
   xmlns:sodipodi="http://sodipodi.sourceforge.net/DTD/sodipodi-0.dtd"
   xmlns:inkscape="http://www.inkscape.org/namespaces/inkscape"
   width="208"
   height="208"
   id="svg3097"
   version="1.1"
   inkscape:version="0.48.3.1 r9886"
   sodipodi:docname="Новый документ 2">
  <defs
     id="defs3099">
    <radialGradient
       inkscape:collect="always"
       xlink:href="#linearGradient3761-7"
       id="radialGradient3767-7"
       cx="0"
       cy="4"
       fx="0"
       fy="4"
       r="48"
       gradientUnits="userSpaceOnUse" />
    <linearGradient
       id="linearGradient3761-7">
      <stop
         style="stop-color:#ea703f;stop-opacity:0;"
         offset="0"
         id="stop3763-69" />
      <stop
         style="stop-color:#ea703f;stop-opacity:0.72388059;"
         offset="1"
         id="stop3765-0" />
    </linearGradient>
    <clipPath
       clipPathUnits="userSpaceOnUse"
       id="clipPath3785-94">
      <path
         style="opacity:0.1;color:#000000;fill:#ff00ff;fill-opacity:1;fill-rule:nonzero;stroke:none;stroke-width:1.5;marker:none;visibility:visible;display:inline;overflow:visible;enable-background:accumulate"
         d="m -52.000002,-48.00003 0,104 104,0 0,-104 -104,0 z m 52.00000024,4 c 26.50966776,0 47.99999976,21.490332 47.99999976,48 0,26.509668 -21.490332,48 -47.99999976,48 -26.50966824,0 -48.00000024,-21.490332 -48.00000024,-48 0,-26.509668 21.490332,-48 48.00000024,-48 z"
         id="path3787-4"
         inkscape:connector-curvature="0" />
    </clipPath>
    <filter
       inkscape:collect="always"
       id="filter3789-0"
       color-interpolation-filters="sRGB">
      <feGaussianBlur
         inkscape:collect="always"
         stdDeviation="2.4"
         id="feGaussianBlur3791-4" />
    </filter>
    <radialGradient
       inkscape:collect="always"
       xlink:href="#linearGradient3761-3"
       id="radialGradient3767-1"
       cx="0"
       cy="4"
       fx="0"
       fy="4"
       r="48"
       gradientUnits="userSpaceOnUse" />
    <linearGradient
       id="linearGradient3761-3">
      <stop
         style="stop-color:#ea703f;stop-opacity:0;"
         offset="0"
         id="stop3763-6" />
      <stop
         style="stop-color:#ea703f;stop-opacity:0.72388059;"
         offset="1"
         id="stop3765-9" />
    </linearGradient>
    <clipPath
       clipPathUnits="userSpaceOnUse"
       id="clipPath3785-1">
      <path
         style="opacity:0.1;color:#000000;fill:#ff00ff;fill-opacity:1;fill-rule:nonzero;stroke:none;stroke-width:1.5;marker:none;visibility:visible;display:inline;overflow:visible;enable-background:accumulate"
         d="m -52.000002,-48.00003 0,104 104,0 0,-104 -104,0 z m 52.00000024,4 c 26.50966776,0 47.99999976,21.490332 47.99999976,48 0,26.509668 -21.490332,48 -47.99999976,48 -26.50966824,0 -48.00000024,-21.490332 -48.00000024,-48 0,-26.509668 21.490332,-48 48.00000024,-48 z"
         id="path3787-5"
         inkscape:connector-curvature="0" />
    </clipPath>
    <filter
       inkscape:collect="always"
       id="filter3789-7"
       color-interpolation-filters="sRGB">
      <feGaussianBlur
         inkscape:collect="always"
         stdDeviation="2.4"
         id="feGaussianBlur3791-9" />
    </filter>
    <radialGradient
       inkscape:collect="always"
       xlink:href="#linearGradient3761-4"
       id="radialGradient3767-4"
       cx="0"
       cy="4"
       fx="0"
       fy="4"
       r="48"
       gradientUnits="userSpaceOnUse" />
    <linearGradient
       id="linearGradient3761-4">
      <stop
         style="stop-color:#ea703f;stop-opacity:0;"
         offset="0"
         id="stop3763-3" />
      <stop
         style="stop-color:#ea703f;stop-opacity:0.72388059;"
         offset="1"
         id="stop3765-3" />
    </linearGradient>
    <clipPath
       clipPathUnits="userSpaceOnUse"
       id="clipPath3785-9">
      <path
         style="opacity:0.1;color:#000000;fill:#ff00ff;fill-opacity:1;fill-rule:nonzero;stroke:none;stroke-width:1.5;marker:none;visibility:visible;display:inline;overflow:visible;enable-background:accumulate"
         d="m -52.000002,-48.00003 0,104 104,0 0,-104 -104,0 z m 52.00000024,4 c 26.50966776,0 47.99999976,21.490332 47.99999976,48 0,26.509668 -21.490332,48 -47.99999976,48 -26.50966824,0 -48.00000024,-21.490332 -48.00000024,-48 0,-26.509668 21.490332,-48 48.00000024,-48 z"
         id="path3787-0"
         inkscape:connector-curvature="0" />
    </clipPath>
    <filter
       inkscape:collect="always"
       id="filter3789-2"
       color-interpolation-filters="sRGB">
      <feGaussianBlur
         inkscape:collect="always"
         stdDeviation="2.4"
         id="feGaussianBlur3791-3" />
    </filter>
    <radialGradient
       inkscape:collect="always"
       xlink:href="#linearGradient3761"
       id="radialGradient3767"
       cx="0"
       cy="4"
       fx="0"
       fy="4"
       r="48"
       gradientUnits="userSpaceOnUse" />
    <linearGradient
       id="linearGradient3761">
      <stop
         style="stop-color:#ea703f;stop-opacity:0;"
         offset="0"
         id="stop3763" />
      <stop
         style="stop-color:#ea703f;stop-opacity:0.72388059;"
         offset="1"
         id="stop3765" />
    </linearGradient>
    <clipPath
       clipPathUnits="userSpaceOnUse"
       id="clipPath3785">
      <path
         style="opacity:0.1;color:#000000;fill:#ff00ff;fill-opacity:1;fill-rule:nonzero;stroke:none;stroke-width:1.5;marker:none;visibility:visible;display:inline;overflow:visible;enable-background:accumulate"
         d="m -52.000002,-48.00003 0,104 104,0 0,-104 -104,0 z m 52.00000024,4 c 26.50966776,0 47.99999976,21.490332 47.99999976,48 0,26.509668 -21.490332,48 -47.99999976,48 -26.50966824,0 -48.00000024,-21.490332 -48.00000024,-48 0,-26.509668 21.490332,-48 48.00000024,-48 z"
         id="path3787"
         inkscape:connector-curvature="0" />
    </clipPath>
    <filter
       inkscape:collect="always"
       id="filter3789"
       color-interpolation-filters="sRGB">
      <feGaussianBlur
         inkscape:collect="always"
         stdDeviation="2.4"
         id="feGaussianBlur3791" />
    </filter>
  </defs>
  <sodipodi:namedview
     id="base"
     pagecolor="#ffffff"
     bordercolor="#666666"
     borderopacity="1.0"
     inkscape:pageopacity="0.0"
     inkscape:pageshadow="2"
     inkscape:zoom="2"
     inkscape:cx="133.88133"
     inkscape:cy="112.31195"
     inkscape:document-units="px"
     inkscape:current-layer="layer1"
     showgrid="false"
     inkscape:snap-grids="true"
     inkscape:window-width="1280"
     inkscape:window-height="946"
     inkscape:window-x="0"
     inkscape:window-y="25"
     inkscape:window-maximized="1" />
  <metadata
     id="metadata3102">
    <rdf:RDF>
      <cc:Work
         rdf:about="">
        <dc:format>image/svg+xml</dc:format>
        <dc:type
           rdf:resource="http://purl.org/dc/dcmitype/StillImage" />
        <dc:title></dc:title>
      </cc:Work>
    </rdf:RDF>
  </metadata>
  <g
     inkscape:label="Layer 1"
     inkscape:groupmode="layer"
     id="layer1"
     transform="translate(0,-844.36218)">
    <path
       transform="translate(52.000002,892.36224)"
       d="M 48,4 A 48,48 0 1 1 -48,4 48,48 0 1 1 48,4 z"
       sodipodi:ry="48"
       sodipodi:rx="48"
       sodipodi:cy="4"
       sodipodi:cx="0"
       id="path3783"
       style="opacity:0.2;color:#000000;fill:#000000;fill-opacity:1;fill-rule:nonzero;stroke:none;stroke-width:1.5;marker:none;visibility:visible;display:inline;overflow:visible;filter:url(#filter3789);enable-background:accumulate"
       sodipodi:type="arc"
       clip-path="url(#clipPath3785)" />
    <path
       sodipodi:type="arc"
       style="color:#000000;fill:url(#radialGradient3767);fill-opacity:1;fill-rule:nonzero;stroke:none;stroke-width:1.5;marker:none;visibility:visible;display:inline;overflow:visible;enable-background:accumulate"
       id="path3759"
       sodipodi:cx="0"
       sodipodi:cy="4"
       sodipodi:rx="48"
       sodipodi:ry="48"
       d="M 48,4 A 48,48 0 1 1 -48,4 48,48 0 1 1 48,4 z"
       transform="translate(52.000002,892.36221)" />
    <path
       style="opacity:0.31174089;color:#000000;fill:#ea703f;fill-opacity:1;fill-rule:nonzero;stroke:none;stroke-width:1.5;marker:none;visibility:visible;display:inline;overflow:visible;enable-background:accumulate"
       d="m 52.000002,848.36221 c -26.50967,0 -48,21.49033 -48,48 0,26.5097 21.49033,48 48,48 26.50967,0 47.999998,-21.4903 47.999998,-48 0,-26.50967 -21.490328,-48 -47.999998,-48 z m 0,1 c 25.95738,0 46.999998,21.04262 46.999998,47 0,25.9574 -21.042618,47 -46.999998,47 -25.95738,0 -47,-21.0426 -47,-47 0,-25.95738 21.04262,-47 47,-47 z"
       id="path3769"
       inkscape:connector-curvature="0" />
    <rect
       style="opacity:0;color:#000000;fill:none;stroke:none;stroke-width:1.5;marker:none;visibility:visible;display:inline;overflow:visible;enable-background:accumulate"
       id="rect3793"
       width="52"
       height="52"
       x="26.000011"
       y="870.36224"
       inkscape:export-filename="/home/matthieu/.themes/MyDwaita/gnome-shell/corner-ripple-ltr.png"
       inkscape:export-xdpi="90"
       inkscape:export-ydpi="90" />
    <rect
       y="870.36224"
       x="26.000011"
       height="52"
       width="52"
       id="rect3795"
       style="opacity:0;color:#000000;fill:none;stroke:none;stroke-width:1.5;marker:none;visibility:visible;display:inline;overflow:visible;enable-background:accumulate"
       inkscape:export-filename="/home/matthieu/.themes/MyDwaita/gnome-shell/corner-ripple-rtl.png"
       inkscape:export-xdpi="90"
       inkscape:export-ydpi="90" />
    <path
       transform="translate(156,892.36224)"
       d="M 48,4 A 48,48 0 1 1 -48,4 48,48 0 1 1 48,4 z"
       sodipodi:ry="48"
       sodipodi:rx="48"
       sodipodi:cy="4"
       sodipodi:cx="0"
       id="path3783-0"
       style="opacity:0.2;color:#000000;fill:#000000;fill-opacity:1;fill-rule:nonzero;stroke:none;stroke-width:1.5;marker:none;visibility:visible;display:inline;overflow:visible;filter:url(#filter3789-2);enable-background:accumulate"
       sodipodi:type="arc"
       clip-path="url(#clipPath3785-9)" />
    <path
       sodipodi:type="arc"
       style="color:#000000;fill:url(#radialGradient3767-4);fill-opacity:1;fill-rule:nonzero;stroke:none;stroke-width:1.5;marker:none;visibility:visible;display:inline;overflow:visible;enable-background:accumulate"
       id="path3759-3"
       sodipodi:cx="0"
       sodipodi:cy="4"
       sodipodi:rx="48"
       sodipodi:ry="48"
       d="M 48,4 A 48,48 0 1 1 -48,4 48,48 0 1 1 48,4 z"
       transform="translate(156,892.36224)" />
    <path
       style="opacity:0.31174089;color:#000000;fill:#ea703f;fill-opacity:1;fill-rule:nonzero;stroke:none;stroke-width:1.5;marker:none;visibility:visible;display:inline;overflow:visible;enable-background:accumulate"
       d="m 156,848.36224 c -26.50967,0 -48,21.4903 -48,47.99997 0,26.5097 21.49033,48 48,48 26.50967,0 48,-21.4903 48,-48 0,-26.50967 -21.49033,-47.99997 -48,-47.99997 z m 0,1 c 25.95738,0 47,21.0426 47,46.99997 0,25.9574 -21.04262,47 -47,47 -25.95738,0 -47,-21.0426 -47,-47 0,-25.95737 21.04262,-46.99997 47,-46.99997 z"
       id="path3769-2"
       inkscape:connector-curvature="0" />
    <rect
       style="opacity:0;color:#000000;fill:none;stroke:none;stroke-width:1.5;marker:none;visibility:visible;display:inline;overflow:visible;enable-background:accumulate"
       id="rect3793-1"
       width="52"
       height="52"
       x="130.00026"
       y="870.36206"
       inkscape:export-filename="/home/matthieu/.themes/MyDwaita/gnome-shell/corner-ripple-ltr.png"
       inkscape:export-xdpi="90"
       inkscape:export-ydpi="90" />
    <rect
       y="870.36206"
       x="130.00026"
       height="52"
       width="52"
       id="rect3795-9"
       style="opacity:0;color:#000000;fill:none;stroke:none;stroke-width:1.5;marker:none;visibility:visible;display:inline;overflow:visible;enable-background:accumulate"
       inkscape:export-filename="/home/matthieu/.themes/MyDwaita/gnome-shell/corner-ripple-rtl.png"
       inkscape:export-xdpi="90"
       inkscape:export-ydpi="90" />
    <path
       transform="translate(156,996.36221)"
       d="M 48,4 A 48,48 0 1 1 -48,4 48,48 0 1 1 48,4 z"
       sodipodi:ry="48"
       sodipodi:rx="48"
       sodipodi:cy="4"
       sodipodi:cx="0"
       id="path3783-6"
       style="opacity:0.2;color:#000000;fill:#000000;fill-opacity:1;fill-rule:nonzero;stroke:none;stroke-width:1.5;marker:none;visibility:visible;display:inline;overflow:visible;filter:url(#filter3789-7);enable-background:accumulate"
       sodipodi:type="arc"
       clip-path="url(#clipPath3785-1)" />
    <path
       sodipodi:type="arc"
       style="color:#000000;fill:url(#radialGradient3767-1);fill-opacity:1;fill-rule:nonzero;stroke:none;stroke-width:1.5;marker:none;visibility:visible;display:inline;overflow:visible;enable-background:accumulate"
       id="path3759-4"
       sodipodi:cx="0"
       sodipodi:cy="4"
       sodipodi:rx="48"
       sodipodi:ry="48"
       d="M 48,4 A 48,48 0 1 1 -48,4 48,48 0 1 1 48,4 z"
       transform="translate(156,996.36221)" />
    <path
       style="opacity:0.31174089;color:#000000;fill:#ea703f;fill-opacity:1;fill-rule:nonzero;stroke:none;stroke-width:1.5;marker:none;visibility:visible;display:inline;overflow:visible;enable-background:accumulate"
       d="m 156,952.36221 c -26.50967,0 -48,21.4903 -48,48.00009 0,26.5097 21.49033,48 48,48 26.50967,0 48,-21.4903 48,-48.0001 0,-26.50969 -21.49033,-47.99999 -48,-47.99999 z m 0,1 c 25.95738,0 47,21.0426 47,47.00009 0,25.9574 -21.04262,47 -47,47 -25.95738,0 -47,-21.0426 -47,-47.0001 0,-25.95739 21.04262,-46.99999 47,-46.99999 z"
       id="path3769-8"
       inkscape:connector-curvature="0" />
    <rect
       style="opacity:0;color:#000000;fill:none;stroke:none;stroke-width:1.5;marker:none;visibility:visible;display:inline;overflow:visible;enable-background:accumulate"
       id="rect3793-2"
       width="52"
       height="52"
       x="130.00008"
       y="974.36176"
       inkscape:export-filename="/home/matthieu/.themes/MyDwaita/gnome-shell/corner-ripple-ltr.png"
       inkscape:export-xdpi="90"
       inkscape:export-ydpi="90" />
    <rect
       y="974.36176"
       x="130.00008"
       height="52"
       width="52"
       id="rect3795-1"
       style="opacity:0;color:#000000;fill:none;stroke:none;stroke-width:1.5;marker:none;visibility:visible;display:inline;overflow:visible;enable-background:accumulate"
       inkscape:export-filename="/home/matthieu/.themes/MyDwaita/gnome-shell/corner-ripple-rtl.png"
       inkscape:export-xdpi="90"
       inkscape:export-ydpi="90" />
    <path
       transform="translate(52.000002,996.36221)"
       d="M 48,4 A 48,48 0 1 1 -48,4 48,48 0 1 1 48,4 z"
       sodipodi:ry="48"
       sodipodi:rx="48"
       sodipodi:cy="4"
       sodipodi:cx="0"
       id="path3783-9"
       style="opacity:0.2;color:#000000;fill:#000000;fill-opacity:1;fill-rule:nonzero;stroke:none;stroke-width:1.5;marker:none;visibility:visible;display:inline;overflow:visible;filter:url(#filter3789-0);enable-background:accumulate"
       sodipodi:type="arc"
       clip-path="url(#clipPath3785-94)" />
    <path
       sodipodi:type="arc"
       style="color:#000000;fill:url(#radialGradient3767-7);fill-opacity:1;fill-rule:nonzero;stroke:none;stroke-width:1.5;marker:none;visibility:visible;display:inline;overflow:visible;enable-background:accumulate"
       id="path3759-1"
       sodipodi:cx="0"
       sodipodi:cy="4"
       sodipodi:rx="48"
       sodipodi:ry="48"
       d="M 48,4 A 48,48 0 1 1 -48,4 48,48 0 1 1 48,4 z"
       transform="translate(52.000002,996.36221)" />
    <path
       style="opacity:0.31174089;color:#000000;fill:#ea703f;fill-opacity:1;fill-rule:nonzero;stroke:none;stroke-width:1.5;marker:none;visibility:visible;display:inline;overflow:visible;enable-background:accumulate"
       d="m 52.000002,952.36221 c -26.50967,0 -48,21.4903 -48,48.00009 0,26.5097 21.49033,48 48,48 26.50967,0 47.999998,-21.4903 47.999998,-48.0001 0,-26.50969 -21.490328,-47.99999 -47.999998,-47.99999 z m 0,1 c 25.95738,0 46.999998,21.0426 46.999998,47.00009 0,25.9574 -21.042618,47 -46.999998,47 -25.95738,0 -47,-21.0426 -47,-47.0001 0,-25.95739 21.04262,-46.99999 47,-46.99999 z"
       id="path3769-3"
       inkscape:connector-curvature="0" />
    <rect
       style="opacity:0;color:#000000;fill:none;stroke:none;stroke-width:1.5;marker:none;visibility:visible;display:inline;overflow:visible;enable-background:accumulate"
       id="rect3793-5"
       width="52"
       height="52"
       x="26.000011"
       y="974.36322"
       inkscape:export-filename="/home/matthieu/.themes/MyDwaita/gnome-shell/corner-ripple-ltr.png"
       inkscape:export-xdpi="90"
       inkscape:export-ydpi="90" />
    <rect
       y="974.36322"
       x="26.000011"
       height="52"
       width="52"
       id="rect3795-4"
       style="opacity:0;color:#000000;fill:none;stroke:none;stroke-width:1.5;marker:none;visibility:visible;display:inline;overflow:visible;enable-background:accumulate"
       inkscape:export-filename="/home/matthieu/.themes/MyDwaita/gnome-shell/corner-ripple-rtl.png"
       inkscape:export-xdpi="90"
       inkscape:export-ydpi="90" />
  </g>
</svg>
