<?xml version="1.0" encoding="UTF-8" standalone="no"?>
<!-- Created with Inkscape (http://www.inkscape.org/) -->

<svg
   xmlns:dc="http://purl.org/dc/elements/1.1/"
   xmlns:cc="http://creativecommons.org/ns#"
   xmlns:rdf="http://www.w3.org/1999/02/22-rdf-syntax-ns#"
   xmlns:svg="http://www.w3.org/2000/svg"
   xmlns="http://www.w3.org/2000/svg"
   xmlns:sodipodi="http://sodipodi.sourceforge.net/DTD/sodipodi-0.dtd"
   xmlns:inkscape="http://www.inkscape.org/namespaces/inkscape"
   width="36"
   height="36"
   id="svg3768"
   version="1.1"
   inkscape:version="0.48.3.1 r9886"
   sodipodi:docname="window-close-hover.svg">
  <defs
     id="defs3770" />
  <sodipodi:namedview
     id="base"
     pagecolor="#ffffff"
     bordercolor="#666666"
     borderopacity="1.0"
     inkscape:pageopacity="1"
     inkscape:pageshadow="2"
     inkscape:zoom="22.117647"
     inkscape:cx="20.025453"
     inkscape:cy="24.222371"
     inkscape:current-layer="layer1"
     showgrid="true"
     inkscape:document-units="px"
     inkscape:grid-bbox="true"
     inkscape:window-width="1280"
     inkscape:window-height="974"
     inkscape:window-x="0"
     inkscape:window-y="0"
     inkscape:window-maximized="1"
     fit-margin-top="0"
     fit-margin-left="0"
     fit-margin-right="0"
     fit-margin-bottom="0">
    <inkscape:grid
       type="xygrid"
       id="grid4311"
       empspacing="5"
       visible="true"
       enabled="true"
       snapvisiblegridlinesonly="true"
       originx="0.025453845px"
       originy="-0.011670932px" />
  </sodipodi:namedview>
  <metadata
     id="metadata3773">
    <rdf:RDF>
      <cc:Work
         rdf:about="">
        <dc:format>image/svg+xml</dc:format>
        <dc:type
           rdf:resource="http://purl.org/dc/dcmitype/StillImage" />
        <dc:title />
      </cc:Work>
    </rdf:RDF>
  </metadata>
  <g
     id="layer1"
     inkscape:label="Layer 1"
     inkscape:groupmode="layer"
     transform="translate(0.06914427,-28.052159)">
    <path
       sodipodi:type="arc"
       style="fill:#3c3b37;fill-opacity:0.6;fill-rule:nonzero;stroke:#161616;stroke-width:0.75662148;stroke-miterlimit:4;stroke-opacity:1;stroke-dasharray:none"
       id="path3776-9"
       sodipodi:cx="17.84091"
       sodipodi:cy="11.75"
       sodipodi:rx="11.704545"
       sodipodi:ry="11.75"
       d="m 29.545455,11.75 a 11.704545,11.75 0 1 1 -23.4090901,0 11.704545,11.75 0 1 1 23.4090901,0 z"
       transform="matrix(1.4898043,0,0,1.484041,-8.6486094,28.614678)" />
    <path
       style="color:#000000;fill:#ed7545;fill-opacity:1;fill-rule:nonzero;stroke:none;stroke-width:4;marker:none;visibility:visible;display:inline;overflow:visible;enable-background:accumulate"
       d="m 14.087601,40.42716 c -0.146087,0 -0.298795,0.03448 -0.410731,0.146578 l -1.202853,1.201989 c -0.223878,0.224212 -0.223878,0.596655 0,0.820867 l 3.432529,3.459376 -3.432529,3.430057 c -0.224213,0.224368 -0.224213,0.596504 0,0.820869 l 1.202853,1.201986 c 0.224211,0.22437 0.597246,0.22437 0.821458,0 l 3.43253,-3.430054 3.43253,3.430057 c 0.223875,0.224213 0.597583,0.224213 0.82146,0 l 1.202851,-1.201986 c 0.223878,-0.224212 0.223878,-0.596657 0,-0.820869 l -3.43253,-3.430057 3.43253,-3.459376 c 0.224213,-0.224368 0.224213,-0.596501 0,-0.820868 l -1.202851,-1.201986 c -0.112095,-0.112185 -0.293765,-0.14658 -0.440069,-0.14658 -0.14631,0 -0.269286,0.03441 -0.381391,0.14658 l -3.43253,3.430061 -3.43253,-3.430058 c -0.111936,-0.112105 -0.264642,-0.146581 -0.410727,-0.146581 z"
       id="rect2987"
       inkscape:connector-curvature="0" />
  </g>
</svg>
