<?xml version="1.0" encoding="UTF-8" standalone="no"?>
<!-- Created with Inkscape (http://www.inkscape.org/) -->

<svg
   xmlns:dc="http://purl.org/dc/elements/1.1/"
   xmlns:cc="http://creativecommons.org/ns#"
   xmlns:rdf="http://www.w3.org/1999/02/22-rdf-syntax-ns#"
   xmlns:svg="http://www.w3.org/2000/svg"
   xmlns="http://www.w3.org/2000/svg"
   xmlns:sodipodi="http://sodipodi.sourceforge.net/DTD/sodipodi-0.dtd"
   xmlns:inkscape="http://www.inkscape.org/namespaces/inkscape"
   width="36"
   height="36"
   id="svg3768"
   version="1.1"
   inkscape:version="0.48.4 r9939"
   sodipodi:docname="window-close-active.svg">
  <defs
     id="defs3770" />
  <sodipodi:namedview
     id="base"
     pagecolor="#ffffff"
     bordercolor="#666666"
     borderopacity="1.0"
     inkscape:pageopacity="1"
     inkscape:pageshadow="2"
     inkscape:zoom="22.208334"
     inkscape:cx="11.193976"
     inkscape:cy="23.601403"
     inkscape:current-layer="layer1"
     showgrid="true"
     inkscape:document-units="px"
     inkscape:grid-bbox="true"
     inkscape:window-width="1280"
     inkscape:window-height="949"
     inkscape:window-x="0"
     inkscape:window-y="25"
     inkscape:window-maximized="1"
     fit-margin-top="0"
     fit-margin-left="0"
     fit-margin-right="0"
     fit-margin-bottom="0"
     borderlayer="false">
    <inkscape:grid
       type="xygrid"
       id="grid4311"
       empspacing="5"
       visible="true"
       enabled="true"
       snapvisiblegridlinesonly="true"
       originx="0.050907852px"
       originy="-0.0233456px" />
  </sodipodi:namedview>
  <metadata
     id="metadata3773">
    <rdf:RDF>
      <cc:Work
         rdf:about="">
        <dc:format>image/svg+xml</dc:format>
        <dc:type
           rdf:resource="http://purl.org/dc/dcmitype/StillImage" />
        <dc:title />
      </cc:Work>
    </rdf:RDF>
  </metadata>
  <g
     id="layer1"
     inkscape:label="Layer 1"
     inkscape:groupmode="layer"
     transform="translate(0.09459827,-28.040489)">
    <path
       sodipodi:type="arc"
       style="fill:#3c3b37;fill-opacity:0.6;fill-rule:nonzero;stroke:#161616;stroke-width:0.75662148;stroke-miterlimit:4;stroke-opacity:1;stroke-dasharray:none"
       id="path3776-9"
       sodipodi:cx="17.84091"
       sodipodi:cy="11.75"
       sodipodi:rx="11.704545"
       sodipodi:ry="11.75"
       d="m 29.545455,11.75 c 0,6.489346 -5.240303,11.75 -11.704545,11.75 C 11.376668,23.5 6.1363649,18.239346 6.1363649,11.75 6.1363649,5.2606542 11.376668,0 17.84091,0 24.305152,0 29.545455,5.2606542 29.545455,11.75 z"
       transform="matrix(1.4898043,0,0,1.484041,-8.6740634,28.603008)" />
    <path
       style="color:#000000;fill:#ff0000;fill-opacity:1;fill-rule:nonzero;stroke:none;stroke-width:4;marker:none;visibility:visible;display:inline;overflow:visible;enable-background:accumulate"
       d="m 14.062147,40.415489 c -0.146087,0 -0.298794,0.03456 -0.41073,0.146579 l -1.202854,1.201987 c -0.223879,0.224213 -0.223879,0.596655 0,0.820868 l 3.43253,3.459382 -3.43253,3.430054 c -0.224212,0.224369 -0.224212,0.596505 0,0.82087 l 1.202854,1.201987 c 0.224212,0.224367 0.597246,0.224367 0.821461,0 l 3.432524,-3.430058 3.432533,3.430061 c 0.223878,0.224206 0.597579,0.224206 0.821459,0 l 1.20285,-1.201988 c 0.22388,-0.224216 0.22388,-0.596659 0,-0.820869 l -3.43253,-3.430055 3.43253,-3.459381 c 0.224213,-0.224367 0.224213,-0.596503 0,-0.820869 l -1.20285,-1.201985 c -0.112098,-0.112284 -0.293766,-0.14658 -0.44007,-0.14658 -0.146309,0 -0.269284,0.03451 -0.381389,0.14658 l -3.432533,3.430064 -3.432524,-3.430061 c -0.111944,-0.112142 -0.264642,-0.146581 -0.410731,-0.146581 z"
       id="rect2987"
       inkscape:connector-curvature="0" />
  </g>
</svg>
