<?xml version="1.0" encoding="UTF-8" standalone="no"?>
<!-- Created with Inkscape (http://www.inkscape.org/) -->

<svg
   xmlns:dc="http://purl.org/dc/elements/1.1/"
   xmlns:cc="http://creativecommons.org/ns#"
   xmlns:rdf="http://www.w3.org/1999/02/22-rdf-syntax-ns#"
   xmlns:svg="http://www.w3.org/2000/svg"
   xmlns="http://www.w3.org/2000/svg"
   xmlns:sodipodi="http://sodipodi.sourceforge.net/DTD/sodipodi-0.dtd"
   xmlns:inkscape="http://www.inkscape.org/namespaces/inkscape"
   width="36"
   height="36"
   id="svg3768"
   version="1.1"
   inkscape:version="0.48.3.1 r9886"
   sodipodi:docname="workspace-close-hover.svg">
  <defs
     id="defs3770">
    <clipPath
       clipPathUnits="userSpaceOnUse"
       id="clipPath3760">
      <rect
         style="fill:#3c3b37;fill-opacity:1;stroke:none"
         id="rect3762"
         width="32"
         height="32"
         x="1.8622208e-09"
         y="-4.8535156e-07" />
    </clipPath>
    <clipPath
       clipPathUnits="userSpaceOnUse"
       id="clipPath3764">
      <rect
         style="fill:#3c3b37;fill-opacity:1;stroke:none"
         id="rect3766"
         width="32"
         height="32"
         x="-0.043690428"
         y="32.063828" />
    </clipPath>
  </defs>
  <sodipodi:namedview
     id="base"
     pagecolor="#ffffff"
     bordercolor="#666666"
     borderopacity="1.0"
     inkscape:pageopacity="1"
     inkscape:pageshadow="2"
     inkscape:zoom="22.208334"
     inkscape:cx="15.866879"
     inkscape:cy="15.92898"
     inkscape:current-layer="layer2"
     showgrid="true"
     inkscape:document-units="px"
     inkscape:grid-bbox="true"
     inkscape:window-width="1280"
     inkscape:window-height="974"
     inkscape:window-x="0"
     inkscape:window-y="0"
     inkscape:window-maximized="1"
     fit-margin-top="0"
     fit-margin-left="0"
     fit-margin-right="0"
     fit-margin-bottom="0"
     inkscape:snap-smooth-nodes="true"
     inkscape:object-nodes="true">
    <inkscape:grid
       type="xygrid"
       id="grid4311"
       empspacing="5"
       visible="true"
       enabled="true"
       snapvisiblegridlinesonly="true"
       originx="-0.01244px"
       originy="-0.0013276774px" />
  </sodipodi:namedview>
  <metadata
     id="metadata3773">
    <rdf:RDF>
      <cc:Work
         rdf:about="">
        <dc:format>image/svg+xml</dc:format>
        <dc:type
           rdf:resource="http://purl.org/dc/dcmitype/StillImage" />
        <dc:title />
      </cc:Work>
    </rdf:RDF>
  </metadata>
  <g
     id="layer1"
     inkscape:label="Layer 1"
     inkscape:groupmode="layer"
     transform="translate(0.03125,-28.0625)">
    <rect
       style="fill:#3c3b37;fill-opacity:0.8;stroke:none"
       id="rect2988"
       width="38"
       height="34"
       x="1"
       y="-3"
       transform="translate(-47.04369,23.063828)"
       rx="2"
       ry="2"
       clip-path="url(#clipPath3760)" />
    <rect
       style="fill:#3c3b37;fill-opacity:0.6;stroke:#161616;stroke-width:1.12499893;stroke-linecap:butt;stroke-linejoin:round;stroke-miterlimit:4;stroke-opacity:1;stroke-dasharray:none"
       id="rect4910"
       width="34.875271"
       height="34.874729"
       x="0.53126645"
       y="28.625271"
       rx="3.9370127"
       ry="3.9369514" />
  </g>
  <g
     inkscape:groupmode="layer"
     id="layer2"
     inkscape:label="Слой"
     transform="translate(-0.01244,4.001328)">
    <path
       style="color:#000000;fill:#ed7545;fill-opacity:1;fill-rule:nonzero;stroke:#000000;stroke-width:0;stroke-linejoin:round;stroke-miterlimit:4;stroke-opacity:1;stroke-dasharray:none;marker:none;visibility:visible;display:inline;overflow:visible;enable-background:accumulate"
       d="m 14.169306,8.3738579 c -0.146088,0 -0.298796,0.034469 -0.410734,0.1465789 l -1.202861,1.2019769 c -0.223879,0.2242117 -0.223879,0.5966513 0,0.8208613 l 3.432556,3.45935 -3.432556,3.43003 c -0.224215,0.224368 -0.224215,0.596498 0,0.820862 l 1.202861,1.201977 c 0.224213,0.224369 0.597252,0.224369 0.821466,0 l 3.432554,-3.430028 3.432558,3.430032 c 0.223877,0.224212 0.597587,0.224212 0.821467,0 l 1.202859,-1.201979 c 0.223881,-0.224209 0.223881,-0.596649 0,-0.820861 l -3.432557,-3.430031 3.432557,-3.459348 c 0.224215,-0.224366 0.224215,-0.596497 0,-0.8208629 L 22.266617,8.5204402 C 22.154521,8.4082606 21.972849,8.3738613 21.826544,8.3738613 c -0.146311,0 -0.269288,0.034413 -0.381394,0.1465789 L 18.012592,11.950475 14.580038,8.5204435 c -0.111938,-0.112112 -0.264644,-0.14658 -0.410732,-0.14658 z"
       id="rect2987"
       inkscape:connector-curvature="0" />
  </g>
</svg>
